<svg width="105" height="117" viewBox="0 0 105 117" fill="none" xmlns="http://www.w3.org/2000/svg">
<g filter="url(#filter0_d_3_372)">
<path d="M74.1927 8.83325H30.7874C29.6768 8.83325 23.8507 9.15284 18.3767 15.4757C12.987 21.6953 12.8333 27.8214 12.8333 28.4999V82.5833C12.8333 85.1912 13.8781 87.6924 15.7378 89.5365C17.5976 91.3806 20.1199 92.4166 22.75 92.4166H27.7083L17.7916 107.167H29.4586L32.7658 102.25H72.4325L75.7893 107.167H87.2083L77.2916 92.4166H82.25C84.88 92.4166 87.4024 91.3806 89.2621 89.5365C91.1218 87.6924 92.1666 85.1912 92.1666 82.5833V28.4999C92.1716 27.5756 92.008 21.4494 86.5687 15.397C80.8369 9.01517 74.8571 8.83325 74.1927 8.83325ZM42.5833 18.6666H62.4166V28.4999H42.5833V18.6666ZM30.1875 82.5833C28.2143 82.5826 26.3221 81.8047 24.9273 80.4207C23.5325 79.0367 22.7493 77.16 22.75 75.2033C22.7506 73.2467 23.5351 71.3705 24.9309 69.9874C26.3266 68.6043 28.2192 67.8277 30.1924 67.8283C32.1656 67.829 34.0578 68.6069 35.4526 69.9909C36.8474 71.3749 37.6306 73.2516 37.6299 75.2083C37.6293 77.1649 36.8448 79.0411 35.4491 80.4242C34.0533 81.8073 32.1607 82.5839 30.1875 82.5833ZM74.8125 82.5833C72.8393 82.5826 70.9471 81.8047 69.5523 80.4207C68.1575 79.0367 67.3743 77.16 67.375 75.2033C67.3756 73.2467 68.1601 71.3705 69.5558 69.9874C70.9516 68.6043 72.8442 67.8277 74.8174 67.8283C76.7906 67.829 78.6828 68.6069 80.0776 69.9909C81.4724 71.3749 82.2556 73.2516 82.2549 75.2083C82.2543 77.1649 81.4698 79.0411 80.0741 80.4242C78.6783 81.8073 76.7857 82.5839 74.8125 82.5833ZM82.25 57.9999H22.75V38.3333H82.25V57.9999Z" fill="#ED5009"/>
</g>
<defs>
<filter id="filter0_d_3_372" x="0.233313" y="0.233252" width="104.533" height="123.533" filterUnits="userSpaceOnUse" color-interpolation-filters="sRGB">
<feFlood flood-opacity="0" result="BackgroundImageFix"/>
<feColorMatrix in="SourceAlpha" type="matrix" values="0 0 0 0 0 0 0 0 0 0 0 0 0 0 0 0 0 0 127 0" result="hardAlpha"/>
<feOffset dy="4"/>
<feGaussianBlur stdDeviation="6.3"/>
<feComposite in2="hardAlpha" operator="out"/>
<feColorMatrix type="matrix" values="0 0 0 0 0 0 0 0 0 0 0 0 0 0 0 0 0 0 0.25 0"/>
<feBlend mode="normal" in2="BackgroundImageFix" result="effect1_dropShadow_3_372"/>
<feBlend mode="normal" in="SourceGraphic" in2="effect1_dropShadow_3_372" result="shape"/>
</filter>
</defs>
</svg>
