<svg width="217" height="67" viewBox="0 0 217 67" fill="none" xmlns="http://www.w3.org/2000/svg">
<path d="M21.748 66.824C17.78 66.824 14.324 66.504 11.38 65.864C8.5 65.288 6.164 64.616 4.372 63.848C2.58 63.08 1.332 62.536 0.628 62.216V43.976H7.828L10.036 53.96C11.188 55.176 12.788 56.2 14.836 57.032C16.884 57.8 19.124 58.184 21.556 58.184C25.332 58.184 28.212 57.544 30.196 56.264C32.18 54.984 33.172 53.128 33.172 50.696C33.172 49.352 32.788 48.136 32.02 47.048C31.252 45.96 29.94 44.872 28.084 43.784C26.292 42.696 23.796 41.448 20.596 40.04C18.164 38.952 15.732 37.896 13.3 36.872C10.932 35.784 8.788 34.536 6.868 33.128C4.948 31.656 3.412 29.832 2.26 27.656C1.108 25.48 0.532 22.76 0.532 19.496C0.532 15.848 1.46 12.616 3.316 9.8C5.236 6.984 7.924 4.808 11.38 3.272C14.9 1.672 19.028 0.871996 23.764 0.871996C26.26 0.871996 28.692 0.999996 31.06 1.256C33.492 1.512 35.732 1.832 37.78 2.216C39.828 2.6 41.46 2.952 42.676 3.272V21.704H35.38L33.364 11.432C31.956 10.856 30.548 10.44 29.14 10.184C27.732 9.864 26.164 9.704 24.436 9.704C20.724 9.704 18.068 10.28 16.468 11.432C14.932 12.52 14.164 14.152 14.164 16.328C14.164 18.12 14.612 19.56 15.508 20.648C16.468 21.672 17.748 22.568 19.348 23.336C20.948 24.04 22.74 24.808 24.724 25.64C28.756 27.304 32.372 29 35.572 30.728C38.836 32.456 41.396 34.568 43.252 37.064C45.172 39.56 46.132 42.824 46.132 46.856C46.132 50.76 45.396 54.024 43.924 56.648C42.516 59.208 40.628 61.224 38.26 62.696C35.892 64.168 33.268 65.224 30.388 65.864C27.508 66.504 24.628 66.824 21.748 66.824ZM71.4753 66.056C67.9553 66.056 65.1393 65.544 63.0273 64.52C60.9793 63.496 59.5073 61.96 58.6113 59.912C57.7793 57.864 57.3633 55.336 57.3633 52.328V24.872H47.5712V18.056L57.3633 16.04L62.2593 3.848H71.6673V17H85.2033V21.896L83.8593 24.872H71.6673V50.216C71.6673 52.968 72.1473 54.76 73.1073 55.592C74.1313 56.424 75.4433 56.84 77.0433 56.84C78.3233 56.84 79.5713 56.712 80.7873 56.456C82.0033 56.136 83.1233 55.72 84.1473 55.208L86.0673 60.68C84.4033 62.344 82.2593 63.656 79.6353 64.616C77.0113 65.576 74.2913 66.056 71.4753 66.056ZM104.809 66.344C101.481 66.344 98.761 65.736 96.649 64.52C94.537 63.304 93.001 61.736 92.041 59.816C91.081 57.896 90.601 55.848 90.601 53.672C90.601 50.664 91.369 48.232 92.905 46.376C94.441 44.456 96.393 42.952 98.761 41.864C101.193 40.776 103.689 40.008 106.249 39.56L117.097 37.64V31.592C117.097 30.44 116.969 29.32 116.713 28.232C116.521 27.144 115.977 26.28 115.081 25.64C114.185 24.936 112.745 24.584 110.761 24.584C109.609 24.584 108.745 24.648 108.169 24.776C107.657 24.84 107.241 24.936 106.921 25.064L105.577 33.608C105.449 33.672 104.809 33.864 103.657 34.184C102.569 34.504 101.289 34.664 99.817 34.664C97.385 34.664 95.529 34.28 94.249 33.512C93.033 32.68 92.425 31.048 92.425 28.616C92.425 26.44 93.097 24.584 94.441 23.048C95.849 21.448 97.609 20.136 99.721 19.112C101.897 18.024 104.201 17.224 106.633 16.712C109.065 16.2 111.337 15.944 113.449 15.944C117.097 15.944 120.265 16.328 122.953 17.096C125.641 17.864 127.721 19.24 129.193 21.224C130.665 23.208 131.401 26.024 131.401 29.672V56.84L138.505 58.184V63.464C138.313 63.528 137.641 63.752 136.489 64.136C135.401 64.52 134.025 64.872 132.361 65.192C130.761 65.512 129.097 65.672 127.369 65.672C124.361 65.672 122.217 65.288 120.937 64.52C119.721 63.752 118.825 62.6 118.249 61.064H117.577C117.129 61.512 116.329 62.184 115.177 63.08C114.025 63.912 112.585 64.648 110.857 65.288C109.129 65.992 107.113 66.344 104.809 66.344ZM111.817 57.224C112.841 57.224 113.769 57.096 114.601 56.84C115.433 56.52 116.265 56.136 117.097 55.688V45.032C113.577 45.352 111.017 45.864 109.417 46.568C107.817 47.272 106.793 48.104 106.345 49.064C105.961 49.96 105.769 50.888 105.769 51.848C105.769 55.432 107.785 57.224 111.817 57.224ZM140.73 65V59.24L148.602 57.896V26.6L141.018 24.968V18.92L158.682 16.04L162.522 22.184C163.546 21.288 164.73 20.36 166.074 19.4C167.418 18.44 168.762 17.64 170.106 17C171.514 16.296 172.73 15.944 173.754 15.944C175.482 15.944 176.858 16.36 177.882 17.192C178.906 17.96 179.418 19.464 179.418 21.704C179.418 22.984 179.098 24.392 178.458 25.928C177.882 27.4 177.114 28.648 176.154 29.672L168.186 27.176C167.482 26.92 166.842 26.728 166.266 26.6C165.754 26.472 165.306 26.408 164.922 26.408C164.474 26.408 164.09 26.472 163.77 26.6C163.514 26.728 163.226 26.856 162.906 26.984V57.608L174.042 59.24V65H140.73ZM202.35 66.056C198.83 66.056 196.014 65.544 193.902 64.52C191.854 63.496 190.382 61.96 189.486 59.912C188.654 57.864 188.238 55.336 188.238 52.328V24.872H178.446V18.056L188.238 16.04L193.134 3.848H202.542V17H216.078V21.896L214.734 24.872H202.542V50.216C202.542 52.968 203.022 54.76 203.982 55.592C205.006 56.424 206.318 56.84 207.918 56.84C209.198 56.84 210.446 56.712 211.662 56.456C212.878 56.136 213.998 55.72 215.022 55.208L216.942 60.68C215.278 62.344 213.134 63.656 210.51 64.616C207.886 65.576 205.166 66.056 202.35 66.056Z" fill="black"/>
</svg>
