<svg width="260" height="322" viewBox="0 0 260 322" fill="none" xmlns="http://www.w3.org/2000/svg">
<g filter="url(#filter0_d_3_195)">
<path d="M194.113 9H65.9948C62.7165 9 45.5199 9.96146 29.3624 28.9835C13.4537 47.695 13 66.1254 13 68.1667V230.875C13 238.721 16.0839 246.246 21.5732 251.794C27.0626 257.342 34.5077 260.458 42.2708 260.458H56.9062L27.6354 304.833H62.0726L71.8344 290.042H188.918L198.826 304.833H232.531L203.26 260.458H217.896C225.659 260.458 233.104 257.342 238.593 251.794C244.083 246.246 247.167 238.721 247.167 230.875V68.1667C247.181 65.3858 246.698 46.9554 230.643 28.7469C213.725 9.54729 196.074 9 194.113 9ZM100.812 38.5833H159.354V68.1667H100.812V38.5833ZM64.224 230.875C58.3997 230.873 52.8147 228.533 48.6977 224.369C44.5807 220.205 42.2689 214.559 42.2708 208.673C42.2728 202.786 44.5883 197.142 48.7081 192.981C52.8278 188.82 58.4143 186.483 64.2386 186.485C70.0629 186.487 75.6478 188.827 79.7648 192.991C83.8818 197.155 86.1937 202.801 86.1917 208.687C86.1898 214.574 83.8742 220.219 79.7545 224.379C75.6347 228.54 70.0482 230.877 64.224 230.875ZM195.943 230.875C190.118 230.873 184.533 228.533 180.416 224.369C176.299 220.205 173.988 214.559 173.99 208.673C173.992 202.786 176.307 197.142 180.427 192.981C184.547 188.82 190.133 186.483 195.957 186.485C201.782 186.487 207.367 188.827 211.484 192.991C215.601 197.155 217.912 202.801 217.91 208.687C217.909 214.574 215.593 220.219 211.473 224.379C207.353 228.54 201.767 230.877 195.943 230.875ZM217.896 156.917H42.2708V97.75H217.896V156.917Z" fill="#ED5009"/>
</g>
<defs>
<filter id="filter0_d_3_195" x="0.4" y="0.4" width="259.367" height="321.033" filterUnits="userSpaceOnUse" color-interpolation-filters="sRGB">
<feFlood flood-opacity="0" result="BackgroundImageFix"/>
<feColorMatrix in="SourceAlpha" type="matrix" values="0 0 0 0 0 0 0 0 0 0 0 0 0 0 0 0 0 0 127 0" result="hardAlpha"/>
<feOffset dy="4"/>
<feGaussianBlur stdDeviation="6.3"/>
<feComposite in2="hardAlpha" operator="out"/>
<feColorMatrix type="matrix" values="0 0 0 0 0 0 0 0 0 0 0 0 0 0 0 0 0 0 0.25 0"/>
<feBlend mode="normal" in2="BackgroundImageFix" result="effect1_dropShadow_3_195"/>
<feBlend mode="normal" in="SourceGraphic" in2="effect1_dropShadow_3_195" result="shape"/>
</filter>
</defs>
</svg>
